<svg viewBox="0 0 49 48" fill="none" xmlns="http://www.w3.org/2000/svg">
<g clip-path="url(#clip0)">
<path fill-rule="evenodd" clip-rule="evenodd" d="M0.218384 23.4855C0.218384 10.5154 10.7328 0.000976562 23.7029 0.000976562C36.6729 0.000976562 47.1873 10.5154 47.1873 23.4855C47.1873 36.4555 36.6729 46.9699 23.7029 46.9699C10.7328 46.9699 0.218384 36.4555 0.218384 23.4855Z" fill="#FAF4E6"/>
<path d="M31.9265 29.5243C31.9063 29.5142 29.7915 28.3939 27.7572 25.7601C26.491 24.1214 25.5166 22.2398 24.86 20.1672C23.935 17.1518 24.5868 12.8035 24.0368 10.4174C23.4444 7.84941 21.666 7.35405 21.067 7.32765C19.4619 7.25805 17.874 8.66973 17.5371 11.5564C16.1268 23.6433 21.4491 31.1184 29.0979 35.2387C30.6079 36.0062 32.5952 35.3937 33.3689 33.7963C34.1499 32.218 33.5043 30.3057 31.9265 29.5243Z" fill="#FFECB3"/>
<path d="M31.9277 29.5242C31.9076 29.5141 29.7927 28.3938 27.7584 25.7601C26.4922 24.1213 25.5178 22.2397 24.8612 20.1671C23.9362 17.1517 24.588 12.8034 24.038 10.4173C23.4456 7.84933 21.6672 7.35397 21.0682 7.32757C20.6981 7.31173 20.3295 7.37509 19.9762 7.51669C20.7437 7.82965 21.7479 8.60965 22.165 10.4173C22.7151 12.8034 22.0632 17.1517 22.9882 20.1671C23.6448 22.2397 24.6192 24.1213 25.8855 25.7601C27.9197 28.3938 30.0346 29.5141 30.0548 29.5242C31.6325 30.3057 32.2781 32.218 31.4967 33.7962C31.0983 34.6199 30.3759 35.1805 29.5632 35.4263C30.9932 35.8732 32.6736 35.2343 33.3701 33.7962C34.1511 32.218 33.5055 30.3057 31.9277 29.5242Z" fill="#FFE082"/>
<path d="M22.6039 23.4154C22.6039 23.4154 19.0202 18.7882 14.1794 18.59C9.33911 18.3918 9.47543 25.9287 7.88375 26.7538C6.29207 27.579 6.40775 28.3796 6.40775 28.3796C6.40775 28.3796 6.48743 29.1102 7.78727 28.6378C9.08711 28.1655 9.31751 27.8108 9.81479 27.1974C10.3121 26.5834 11.4074 20.2551 14.1521 20.4313C16.8967 20.607 17.5433 26.4418 20.6205 29.9166C23.6978 33.3918 27.1946 36.085 30.9252 35.833C34.2525 35.6084 35.4377 36.5828 36.2138 36.9898C36.3569 37.0647 36.533 37.0095 36.6065 36.866L37.4047 35.3142C37.482 35.1644 37.4157 34.9806 37.2602 34.9153C36.6012 34.6374 34.9941 33.8434 34.2583 32.4486C33.3194 30.6697 34.1652 31.1022 31.2242 28.6374C28.2828 26.173 26.7002 22.4487 26.7765 21.0231C26.8529 19.598 26.5889 16.393 29.2572 16.4497C31.926 16.5058 32.3974 21.0697 33.762 22.5817C34.9716 23.9223 35.6925 22.7166 35.6925 22.7166C35.6925 22.7166 35.9378 21.9034 34.734 20.9866C33.893 20.3463 33.0175 14.6233 29.3282 14.715C25.6394 14.8066 22.4359 17.7673 22.6039 23.4154Z" fill="#FFD54F"/>
<path d="M37.2604 34.9148C36.6014 34.6374 34.9944 33.8434 34.2585 32.4486C33.3196 30.6697 34.1654 31.1022 31.2244 28.6374C28.283 26.173 26.7004 22.4487 26.7768 21.0231C26.8531 19.598 26.5891 16.393 29.2574 16.4492C31.9262 16.5058 32.3976 21.0697 33.7622 22.5817C34.9718 23.9223 35.6928 22.7166 35.6928 22.7166C35.6928 22.7166 35.938 21.9034 34.7342 20.9866C33.8932 20.3458 33.0177 14.6233 29.3284 14.715C26.2358 14.7918 23.4849 16.886 22.7755 20.8892C22.6689 22.4065 22.6041 23.4154 22.6041 23.4154C22.6041 23.4154 23.3433 29.1601 28.356 31.478C33.3691 33.7964 31.7524 34.5644 34.4006 36.1345C34.4011 36.135 34.4011 36.135 34.4016 36.1354C35.2857 36.4062 35.8065 36.7762 36.214 36.9898C36.3571 37.0647 36.5332 37.0095 36.6067 36.866L37.4049 35.3142C37.4822 35.1644 37.416 34.9806 37.2604 34.9148Z" fill="#FFCA28"/>
<path d="M37.2611 34.9137C36.602 34.6362 34.995 33.8423 34.2587 32.4474C33.3198 30.6685 34.166 31.101 31.2251 28.6362C28.2836 26.1719 26.7011 22.4476 26.7774 21.022C26.8417 19.8162 26.6631 17.3361 28.2231 16.6357C26.3636 17.2612 24.9039 18.6541 24.9039 21.022C24.9039 23.3356 26.4107 26.1719 29.3516 28.6362C32.2931 31.101 31.3532 30.7209 32.3857 32.4474C33.7254 34.6871 35.8777 34.5666 36.0491 36.898C36.1067 36.9301 36.1614 36.9609 36.2147 36.9887C36.3577 37.0636 36.5339 37.0084 36.6073 36.8649L37.4055 35.313C37.4828 35.1633 37.4166 34.9794 37.2611 34.9137Z" fill="#FFB300"/>
</g>
<defs>
<clipPath id="clip0">
<rect width="48" height="48" fill="white" transform="translate(0.124634 0.000976562)"/>
</clipPath>
</defs>
</svg>
