<svg width="49" height="48" viewBox="0 0 49 48" fill="none" xmlns="http://www.w3.org/2000/svg">
<path d="M14.0471 3.00098C21.8008 3.00098 28.0971 9.29441 28.0971 17.051C28.0971 24.8047 21.8037 31.101 14.0471 31.101C6.29344 31.101 0 24.8047 0 17.051C0 9.29728 6.29344 3.00098 14.0471 3.00098Z" fill="#F0B90B"/>
<path d="M14.0486 8.47949L16.1659 10.6479L10.8343 15.9795L8.71692 13.8622L14.0486 8.47949Z" fill="white"/>
<path d="M17.2629 11.6934L19.3803 13.8617L10.8343 22.4077L8.71692 20.2904L17.2629 11.6934Z" fill="white"/>
<path d="M7.61992 14.9082L9.73729 17.0766L7.61992 19.1939L5.50256 17.0766L7.61992 14.9082Z" fill="white"/>
<path d="M20.4771 14.9082L22.5945 17.0766L14.0485 25.6226L11.9312 23.5052L20.4771 14.9082Z" fill="white"/>
<path d="M34.05 17C41.8093 17 48.1 23.2907 48.1 31.05C48.1 38.8093 41.809 45.1 34.05 45.1C26.291 45.1 20 38.8109 20 31.05C20 23.2891 26.2899 17 34.05 17Z" fill="#27A17C"/>
<path d="M35.7841 29.178V27.0879H40.5636V23.9033H27.5488V27.0879H32.3289V29.1763C28.4441 29.3547 25.5231 30.1241 25.5231 31.0458C25.5231 31.9675 28.4455 32.7368 32.3289 32.9164V39.6112H35.7852V32.9158C39.663 32.7368 42.5781 31.968 42.5781 31.0472C42.5781 30.1263 39.663 29.3575 35.7852 29.1785L35.7841 29.178ZM35.7852 32.3488V32.3471C35.6877 32.3533 35.1867 32.3833 34.0711 32.3833C33.1792 32.3833 32.5517 32.358 32.3306 32.3465V32.3493C28.8984 32.1973 26.3366 31.5996 26.3366 30.8845C26.3366 30.1693 28.8987 29.5725 32.3306 29.4202V31.7539C32.5554 31.7694 33.1983 31.8073 34.0857 31.8073C35.1515 31.8073 35.6874 31.7629 35.7858 31.7539V29.4202C39.2111 29.5728 41.7671 30.171 41.7671 30.8836C41.7671 31.5963 39.21 32.1948 35.7858 32.3474" fill="white"/>
</svg>
