<svg width="60" height="60" viewBox="0 0 60 60" fill="none" xmlns="http://www.w3.org/2000/svg">
<path d="M17.5669 5.78516C26.2264 5.78516 33.2558 12.8146 33.2558 21.4741C33.2558 30.1336 26.2264 37.1631 17.5669 37.1631C8.90735 37.1631 1.87787 30.1336 1.87787 21.4741C1.87787 12.8146 8.90735 5.78516 17.5669 5.78516Z" fill="white"/>
<path d="M29.9807 9.0748C23.1268 2.22097 11.9977 2.21745 5.14037 9.0748C-1.71346 15.9286 -1.71346 27.0613 5.14037 33.9151C11.9977 40.7724 23.1268 40.7724 29.9807 33.9151C36.838 27.0613 36.8345 15.9321 29.9807 9.0748ZM6.46477 10.4027C12.5914 4.27606 22.5296 4.27606 28.6528 10.3992C34.7759 16.5223 34.7759 26.4641 28.6528 32.5907C22.5296 38.7138 12.5879 38.7138 6.46125 32.5907C0.341638 26.4676 0.341637 16.5258 6.46477 10.4027Z" fill="url(#paint0_linear)"/>
<path d="M14.8267 17.7692L23.0646 14.2071L10.6919 11.1367L14.8267 17.7692Z" fill="url(#paint1_linear)"/>
<path d="M18.1842 23.1843L14.8258 17.7848L23.0637 14.2227L18.1842 23.1843Z" fill="url(#paint2_linear)"/>
<path d="M16.4996 26.2737L10.4783 16.6235L12.1435 25.8662L16.4996 26.2737Z" fill="url(#paint3_linear)"/>
<path d="M16.4979 26.2586L12.1418 25.8511L13.28 32.178L16.4979 26.2586Z" fill="url(#paint4_linear)"/>
<path d="M26.1309 25.9727V14.9771L21.2654 23.9211L26.1309 25.9727Z" fill="url(#paint5_linear)"/>
<path d="M26.1308 25.9818L21.2653 23.9302L16.7722 32.1962L26.1308 25.9818Z" fill="url(#paint6_linear)"/>
<path d="M42.438 21.0693C52.1299 21.0693 60 28.9359 60 38.6314C60 48.3232 52.1334 56.1934 42.438 56.1934C32.7461 56.1934 24.8795 48.3232 24.8795 38.6314C24.8795 28.9395 32.7461 21.0693 42.438 21.0693Z" fill="#F0B90B"/>
<path d="M42.4398 27.9175L45.0864 30.6279L38.422 37.2923L35.7754 34.6457L42.4398 27.9175Z" fill="white"/>
<path d="M46.4576 31.9351L49.1042 34.6455L38.422 45.3276L35.7754 42.681L46.4576 31.9351Z" fill="white"/>
<path d="M34.4042 35.9531L37.0509 38.6635L34.4042 41.3102L31.7576 38.6635L34.4042 35.9531Z" fill="white"/>
<path d="M50.4754 35.9531L53.122 38.6635L42.4398 49.3457L39.7932 46.6991L50.4754 35.9531Z" fill="white"/>
<defs>
<linearGradient id="paint0_linear" x1="4.90423" y1="9.10241" x2="29.8482" y2="34.0463" gradientUnits="userSpaceOnUse">
<stop stop-color="#05E8FC"/>
<stop offset="1" stop-color="#FE0291"/>
</linearGradient>
<linearGradient id="paint1_linear" x1="10.4597" y1="11.5828" x2="21.4111" y2="17.2693" gradientUnits="userSpaceOnUse">
<stop stop-color="#0EF0FE"/>
<stop offset="1" stop-color="#D275F7"/>
</linearGradient>
<linearGradient id="paint2_linear" x1="18.9908" y1="15.9838" x2="18.8665" y2="20.6323" gradientUnits="userSpaceOnUse">
<stop stop-color="#7A87F7"/>
<stop offset="1" stop-color="#D275F7"/>
</linearGradient>
<linearGradient id="paint3_linear" x1="11.3604" y1="21.5195" x2="15.5146" y2="28.0855" gradientUnits="userSpaceOnUse">
<stop stop-color="#D275F7"/>
<stop offset="1" stop-color="#7A87F7"/>
</linearGradient>
<linearGradient id="paint4_linear" x1="14.5736" y1="26.4164" x2="13.1502" y2="31.4565" gradientUnits="userSpaceOnUse">
<stop stop-color="#D275F7"/>
<stop offset="1" stop-color="#FA9D3E"/>
</linearGradient>
<linearGradient id="paint5_linear" x1="27.1164" y1="19.3761" x2="23.4011" y2="23.7515" gradientUnits="userSpaceOnUse">
<stop stop-color="#D275F7"/>
<stop offset="1" stop-color="#7A87F7"/>
</linearGradient>
<linearGradient id="paint6_linear" x1="18.1462" y1="32.4574" x2="26.1308" y2="23.5147" gradientUnits="userSpaceOnUse">
<stop stop-color="#D275F7"/>
<stop offset="1" stop-color="#0EF0FE"/>
</linearGradient>
</defs>
</svg>
