<svg width="36" height="37" viewBox="0 0 36 37" fill="none" xmlns="http://www.w3.org/2000/svg">
<path fill-rule="evenodd" clip-rule="evenodd" d="M32.9671 3.67017H9.63505C7.86681 3.67017 6.17191 4.37346 4.92197 5.62339C3.67038 6.87332 2.96875 8.56989 2.96875 10.3365V33.6702H26.3008C28.069 33.6702 29.7639 32.9669 31.0139 31.7169C32.2655 30.467 32.9671 28.7704 32.9671 27.0022V3.67017ZM29.6339 7.00331V27.0022C29.6339 27.8872 29.2823 28.7354 28.6573 29.3604C28.0324 29.9854 27.1841 30.337 26.3008 30.337H6.3019V10.3365C6.3019 9.45318 6.65355 8.60489 7.27851 7.97993C7.90348 7.35496 8.75176 7.00331 9.63505 7.00331H29.6339Z" fill="white"/>
<path fill-rule="evenodd" clip-rule="evenodd" d="M9.6416 23.6768H12.9714V27.0099H9.6416V23.6768ZM9.6416 17.0105H12.9714V20.3436H9.6416V17.0105ZM9.6416 10.3425H12.9714V13.6757H9.6416V10.3425Z" fill="white"/>
<path fill-rule="evenodd" clip-rule="evenodd" d="M16.3037 23.6768H26.3032V27.0099H16.3037V23.6768ZM16.3037 17.0105H26.3032V20.3436H16.3037V17.0105ZM16.3037 10.3425H26.3032V13.6757H16.3037V10.3425Z" fill="#676675"/>
</svg>
