<svg width="48" height="48" viewBox="0 0 48 48" fill="none" xmlns="http://www.w3.org/2000/svg">
<path fill-rule="evenodd" clip-rule="evenodd" d="M1.07071 18.3877C1.06726 18.4623 1.06551 18.5372 1.06551 18.6123C1.06551 18.8963 1.09028 19.1768 1.13848 19.4531H1.06551V19.8879C1.06551 20.1002 1.07933 20.3105 1.10647 20.5185C1.63554 24.5778 7.22852 27.7718 14.0501 27.7718C20.8717 27.7718 26.4647 24.5778 26.9938 20.5185C27.0209 20.3105 27.0347 20.1002 27.0347 19.8879V19.4531H26.9618C27.01 19.1768 27.0347 18.8963 27.0347 18.6123C27.0347 18.5372 27.033 18.4623 27.0295 18.3877C26.8337 14.1374 21.0976 10.7285 14.0501 10.7285C7.00268 10.7285 1.26658 14.1374 1.07071 18.3877ZM0.00428513 18.3877C0.100866 15.7944 1.86305 13.6161 4.3157 12.1269C6.85815 10.5832 10.3024 9.66309 14.0501 9.66309C17.7978 9.66309 21.2421 10.5832 23.7845 12.1269C26.2372 13.6161 27.9994 15.7944 28.096 18.3877H28.1001V19.8879C28.1001 22.58 26.3077 24.8414 23.7845 26.3733C21.2421 27.917 17.7978 28.8372 14.0501 28.8372C10.3024 28.8372 6.85815 27.917 4.3157 26.3733C1.79253 24.8414 0.00012207 22.58 0.00012207 19.8879V18.3877H0.00428513Z" fill="#606063"/>
<path d="M27.0346 19.8887C27.0346 24.2428 21.2212 27.7725 14.05 27.7725C6.87884 27.7725 1.06543 24.2428 1.06543 19.8887V18.6406H27.0346V19.8887Z" fill="#BEBEBE"/>
<path d="M27.0346 18.6133C27.0346 22.9674 21.2212 26.4971 14.05 26.4971C6.87884 26.4971 1.06543 22.9674 1.06543 18.6133C1.06543 14.2592 6.87884 10.7295 14.05 10.7295C21.2212 10.7295 27.0346 14.2592 27.0346 18.6133Z" fill="#FAF9FA"/>
<path fill-rule="evenodd" clip-rule="evenodd" d="M3.06323 16.3854C3.06323 16.3903 3.06323 16.3952 3.06323 16.4002C3.06323 16.7587 3.11519 17.1098 3.21476 17.4508H3.06311V17.9125C3.06311 18.1163 3.07988 18.3177 3.11269 18.5162C3.60771 21.5139 7.74915 23.8537 12.7848 23.8537C17.8205 23.8537 21.962 21.5139 22.457 18.5162C22.4898 18.3177 22.5066 18.1163 22.5066 17.9125V17.4508H22.3551C22.452 17.1191 22.5038 16.7778 22.5066 16.4295C22.5067 16.4197 22.5067 16.4099 22.5067 16.4002C22.5067 16.3952 22.5067 16.3903 22.5067 16.3854C22.4936 13.111 18.1461 10.459 12.785 10.459C7.42385 10.459 3.0763 13.111 3.06323 16.3854ZM1.99785 16.3854H1.99768V17.9125C1.99768 20.0647 3.42087 21.8406 5.35498 23.0226C7.30737 24.2158 9.93691 24.9191 12.7848 24.9191C15.6328 24.9191 18.2623 24.2158 20.2147 23.0226C22.1488 21.8406 23.572 20.0647 23.572 17.9125V16.4334C23.5721 16.4223 23.5721 16.4113 23.5721 16.4002C23.5721 14.2479 22.149 12.472 20.2148 11.29C18.2624 10.0968 15.6329 9.39355 12.785 9.39355C9.93699 9.39355 7.3075 10.0968 5.35511 11.29C3.42541 12.4693 2.00434 14.2398 1.99785 16.3854Z" fill="#633001"/>
<path d="M22.5066 17.9125C22.5066 21.1937 18.154 23.8537 12.7849 23.8537C7.4157 23.8537 3.06311 21.1937 3.06311 17.9125V16.5186H22.5066V17.9125Z" fill="#FEDC90"/>
<path d="M22.5066 16.4002C22.5066 19.6814 18.154 22.3414 12.7849 22.3414C7.4157 22.3414 3.06311 19.6814 3.06311 16.4002C3.06311 13.119 7.4157 10.459 12.7849 10.459C18.154 10.459 22.5066 13.119 22.5066 16.4002Z" fill="#D1884F"/>
<path fill-rule="evenodd" clip-rule="evenodd" d="M5.99316 13.189C5.99316 13.194 5.99312 13.1989 5.99312 13.2039C5.99312 13.5624 6.04512 13.9134 6.14465 14.2545H5.99304V14.7162C5.99304 14.92 6.00982 15.1214 6.04262 15.3199C6.53764 18.3176 10.6791 20.6574 15.7148 20.6574C20.7505 20.6574 24.8919 18.3176 25.387 15.3199C25.4197 15.1214 25.4365 14.92 25.4365 14.7162V14.2545H25.2851C25.382 13.9228 25.4337 13.5815 25.4365 13.2332C25.4366 13.2234 25.4366 13.2136 25.4366 13.2039C25.4366 13.1989 25.4366 13.194 25.4366 13.189C25.4235 9.91462 21.076 7.26269 15.7149 7.26269C10.3538 7.26269 6.00624 9.91462 5.99316 13.189ZM4.92778 13.189H4.92761V14.7162C4.92761 16.8684 6.35076 18.6444 8.28492 19.8263C10.2373 21.0195 12.8668 21.7228 15.7148 21.7228C18.5627 21.7228 21.1922 21.0195 23.1447 19.8263C25.0788 18.6444 26.5019 16.8684 26.5019 14.7162V13.2371C26.502 13.2261 26.502 13.2149 26.502 13.2039C26.502 11.0516 25.0789 9.27569 23.1447 8.0937C21.1924 6.90052 18.5629 6.19727 15.7149 6.19727C12.8669 6.19727 10.2374 6.90052 8.285 8.0937C6.35534 9.27299 4.93427 11.0435 4.92778 13.189Z" fill="#633001"/>
<path d="M25.4364 14.7162C25.4364 17.9974 21.0838 20.6574 15.7146 20.6574C10.3455 20.6574 5.99292 17.9974 5.99292 14.7162V13.3223H25.4364V14.7162Z" fill="#FEDC90"/>
<path d="M25.4364 13.2039C25.4364 16.4851 21.0838 19.1451 15.7146 19.1451C10.3455 19.1451 5.99292 16.4851 5.99292 13.2039C5.99292 9.92266 10.3455 7.2627 15.7146 7.2627C21.0838 7.2627 25.4364 9.92266 25.4364 13.2039Z" fill="#D1884F"/>
<path fill-rule="evenodd" clip-rule="evenodd" d="M3.06323 9.9928C3.06323 9.99771 3.06323 10.0027 3.06323 10.0076C3.06323 10.3661 3.11519 10.7172 3.21476 11.0582H3.06311V11.5199C3.06311 11.7237 3.07988 11.9251 3.11269 12.1236C3.60771 15.1213 7.74915 17.4611 12.7848 17.4611C17.8205 17.4611 21.962 15.1213 22.457 12.1236C22.4898 11.9251 22.5066 11.7237 22.5066 11.5199V11.0582H22.3551C22.452 10.7265 22.5038 10.3852 22.5066 10.0369C22.5067 10.0271 22.5067 10.0174 22.5067 10.0076C22.5067 10.0027 22.5067 9.99771 22.5067 9.9928C22.4936 6.71838 18.1461 4.0664 12.785 4.0664C7.42385 4.0664 3.0763 6.71838 3.06323 9.9928ZM1.99785 9.9928H1.99768V11.5199C1.99768 13.6721 3.42087 15.4481 5.35498 16.6301C7.30737 17.8232 9.93691 18.5265 12.7848 18.5265C15.6328 18.5265 18.2623 17.8232 20.2147 16.6301C22.1488 15.4481 23.572 13.6721 23.572 11.5199V10.0408C23.5721 10.0298 23.5721 10.0187 23.5721 10.0076C23.5721 7.85537 22.149 6.0794 20.2148 4.89741C18.2624 3.70427 15.6329 3.00098 12.785 3.00098C9.93699 3.00098 7.3075 3.70427 5.35511 4.89741C3.42541 6.0767 2.00434 7.84721 1.99785 9.9928Z" fill="#633001"/>
<path d="M22.5066 11.5199C22.5066 14.8012 18.154 17.4611 12.7849 17.4611C7.4157 17.4611 3.06311 14.8012 3.06311 11.5199V10.126H22.5066V11.5199Z" fill="#FEDC90"/>
<path d="M22.5066 10.0076C22.5066 13.2888 18.154 15.9488 12.7849 15.9488C7.4157 15.9488 3.06311 13.2888 3.06311 10.0076C3.06311 6.72637 7.4157 4.06641 12.7849 4.06641C18.154 4.06641 22.5066 6.72637 22.5066 10.0076Z" fill="#D1884F"/>
<path fill-rule="evenodd" clip-rule="evenodd" d="M5.36292 10.3775C5.36292 11.473 6.15892 12.4541 7.41471 13.1142L6.54466 14.6213L6.54482 14.6214H6.54466V18.4355C6.54466 18.9398 6.9535 19.3486 7.45784 19.3486C7.96219 19.3486 8.37103 18.9398 8.37103 18.4355V15.4022L9.30711 13.7808C9.90566 13.9077 10.5482 13.9767 11.2169 13.9767C14.4499 13.9767 17.0708 12.3653 17.0708 10.3775C17.0708 8.38972 14.4499 6.77832 11.2169 6.77832C7.98383 6.77832 5.36292 8.38972 5.36292 10.3775Z" fill="url(#paint0_linear)"/>
<path fill-rule="evenodd" clip-rule="evenodd" d="M7.41443 13.1148C7.27535 13.0417 7.14188 12.9647 7.0145 12.884C5.99207 12.236 5.36263 11.3522 5.36263 10.3781C5.36263 8.39033 7.98355 6.77893 11.2166 6.77893C14.4496 6.77893 17.0705 8.39033 17.0705 10.3781C17.0705 12.3659 14.4496 13.9773 11.2166 13.9773C10.5479 13.9773 9.90538 13.9083 9.30687 13.7814L8.37079 15.4028V18.4361C8.37079 18.9404 7.9619 19.3492 7.45756 19.3492C6.95322 19.3492 6.54437 18.9404 6.54437 18.4361V14.622L7.41443 13.1148ZM5.61216 14.638V18.4361C5.61216 19.4553 6.43838 20.2815 7.45756 20.2815C8.47678 20.2815 9.303 19.4553 9.303 18.4361V15.6526L9.78853 14.8116C10.2497 14.8759 10.7276 14.9095 11.2166 14.9095C12.9771 14.9095 14.6155 14.4727 15.8442 13.7173C17.0577 12.9712 18.0028 11.8169 18.0028 10.3781C18.0028 8.93934 17.0577 7.78504 15.8442 7.03895C14.6155 6.28354 12.9771 5.84668 11.2166 5.84668C9.45612 5.84668 7.81766 6.28354 6.589 7.03895C5.3755 7.78504 4.43042 8.93934 4.43042 10.3781C4.43042 11.6409 5.15365 12.6807 6.15855 13.4257L5.74346 14.1446C5.70391 14.2109 5.67232 14.2824 5.65004 14.358C5.62278 14.4501 5.61045 14.5446 5.61216 14.638Z" fill="#633001"/>
<path d="M7.19153 8.8606C7.19153 9.89031 8.50324 10.7251 10.1214 10.7251C11.7395 10.7251 13.0512 9.89031 13.0512 8.8606C13.0512 7.83085 11.7395 6.99609 10.1214 6.99609C8.50324 6.99609 7.19153 7.83085 7.19153 8.8606Z" fill="#9E7200"/>
<path d="M7.19165 8.06152H13.0514V8.8606H7.19165V8.06152Z" fill="#9E7200"/>
<path d="M7.19153 8.06173C7.19153 9.09148 8.50324 9.92624 10.1214 9.92624C11.7395 9.92624 13.0512 9.09148 13.0512 8.06173C13.0512 7.03202 11.7395 6.19727 10.1214 6.19727C8.50324 6.19727 7.19153 7.03202 7.19153 8.06173Z" fill="#F0B90B"/>
<path d="M9.00959 7.83735L9.8354 7.31182C10.0099 7.20075 10.2329 7.20075 10.4074 7.31182L11.2332 7.83735C11.3977 7.94201 11.3977 8.18209 11.2332 8.28678L10.4074 8.81232C10.2329 8.92334 10.0099 8.92334 9.8354 8.81232L9.00959 8.28678C8.84511 8.18209 8.84511 7.94201 9.00959 7.83735Z" fill="#9E7200"/>
<path fill-rule="evenodd" clip-rule="evenodd" d="M7.54917 5.95649C8.25047 5.51018 9.1624 5.26465 10.1214 5.26465C11.0804 5.26465 11.9923 5.51018 12.6936 5.95649C13.3839 6.39573 13.9834 7.11721 13.9834 8.06137V8.86045C13.9834 9.80461 13.3839 10.5261 12.6936 10.9653C11.9923 11.4116 11.0804 11.6572 10.1214 11.6572C9.1624 11.6572 8.25047 11.4116 7.54917 10.9653C6.85891 10.5261 6.25928 9.80461 6.25928 8.86045V8.06137C6.25928 7.11721 6.85891 6.39573 7.54917 5.95649ZM10.1214 6.1969C8.50328 6.1969 7.19153 7.03166 7.19153 8.06137V8.86045C7.19153 9.89016 8.50328 10.725 10.1214 10.725C11.7395 10.725 13.0512 9.89016 13.0512 8.86045V8.06137C13.0512 7.03166 11.7395 6.1969 10.1214 6.1969Z" fill="#633001"/>
<path d="M33.9506 15.7695C41.7041 15.7695 48.0002 22.0628 48.0002 29.8191C48.0002 37.5726 41.7069 43.8688 33.9506 43.8688C26.1971 43.8688 19.9038 37.5726 19.9038 29.8191C19.9038 22.0657 26.1971 15.7695 33.9506 15.7695Z" fill="#F0B90B"/>
<path d="M33.952 21.248L36.0693 23.4164L30.7378 28.7479L28.6205 26.6306L33.952 21.248Z" fill="white"/>
<path d="M37.1662 24.4619L39.2835 26.6302L30.7378 35.176L28.6205 33.0587L37.1662 24.4619Z" fill="white"/>
<path d="M27.5236 27.6758L29.6409 29.8441L27.5236 31.9614L25.4062 29.8441L27.5236 27.6758Z" fill="white"/>
<path d="M40.3805 27.6758L42.4978 29.8441L33.952 38.3899L31.8347 36.2725L40.3805 27.6758Z" fill="white"/>
<defs>
<linearGradient id="paint0_linear" x1="11.2802" y1="6.8988" x2="11.2802" y2="19.2541" gradientUnits="userSpaceOnUse">
<stop stop-color="#9F4A08"/>
<stop offset="0.37" stop-color="#7D3900"/>
<stop offset="1" stop-color="#8D4104"/>
</linearGradient>
</defs>
</svg>
