<svg width="60" height="60" viewBox="0 0 60 60" fill="none" xmlns="http://www.w3.org/2000/svg">
<path fill-rule="evenodd" clip-rule="evenodd" d="M2.28595 35.2706C2.27858 35.43 2.27484 35.5899 2.27484 35.7503C2.27484 36.3567 2.32773 36.9556 2.43067 37.5455H2.27484V38.474C2.27484 38.9272 2.30436 39.3763 2.36231 39.8204C3.492 48.4879 15.4343 55.3078 30 55.3078C44.5657 55.3078 56.508 48.4879 57.6377 39.8204C57.6956 39.3763 57.7252 38.9272 57.7252 38.474V37.5455H57.5693C57.6723 36.9556 57.7252 36.3567 57.7252 35.7503C57.7252 35.5899 57.7214 35.43 57.714 35.2706C57.2958 26.1954 45.0479 18.9165 30 18.9165C14.9521 18.9165 2.70418 26.1954 2.28595 35.2706ZM0.00888909 35.2706C0.215111 29.7334 3.97778 25.0821 9.21476 21.9024C14.6435 18.6063 21.9978 16.6416 30 16.6416C38.0022 16.6416 45.3565 18.6063 50.7852 21.9024C56.0222 25.0821 59.7849 29.7334 59.9911 35.2706H60V38.474C60 44.2222 56.1728 49.0508 50.7852 52.3219C45.3565 55.618 38.0022 57.5828 30 57.5828C21.9978 57.5828 14.6435 55.618 9.21476 52.3219C3.8272 49.0508 0 44.2222 0 38.474V35.2706H0.00888909Z" fill="#606063"/>
<path d="M57.7249 38.4745C57.7249 47.7715 45.3119 55.3082 29.9997 55.3082C14.6876 55.3082 2.27466 47.7715 2.27466 38.4745V35.8096H57.7249V38.4745Z" fill="#BEBEBE"/>
<path d="M57.7249 35.7517C57.7249 45.0488 45.3119 52.5855 29.9997 52.5855C14.6876 52.5855 2.27466 45.0488 2.27466 35.7517C2.27466 26.4547 14.6876 18.918 29.9997 18.918C45.3119 18.918 57.7249 26.4547 57.7249 35.7517Z" fill="#FAF9FA"/>
<path fill-rule="evenodd" clip-rule="evenodd" d="M6.54046 30.9965C6.54046 31.007 6.54046 31.0176 6.54046 31.0281C6.54046 31.7936 6.65139 32.5433 6.86402 33.2715H6.54019V34.2573C6.54019 34.6925 6.57601 35.1225 6.64606 35.5464C7.70304 41.9471 16.546 46.9431 27.2983 46.9431C38.0507 46.9431 46.8936 41.9471 47.9507 35.5464C48.0206 35.1225 48.0565 34.6925 48.0565 34.2573V33.2715H47.7332C47.94 32.5631 48.0507 31.8345 48.0565 31.0908C48.0567 31.0699 48.0567 31.049 48.0567 31.0281C48.0567 31.0176 48.0567 31.007 48.0567 30.9965C48.0288 24.0049 38.7458 18.3423 27.2986 18.3423C15.8514 18.3423 6.56837 24.0049 6.54046 30.9965ZM4.26561 30.9965H4.26526V34.2573C4.26526 38.8528 7.3041 42.6448 11.4339 45.1686C15.6027 47.7164 21.2173 49.2181 27.2983 49.2181C33.3794 49.2181 38.994 47.7164 43.1629 45.1686C47.2926 42.6448 50.3314 38.8528 50.3314 34.2573V31.0991C50.3316 31.0755 50.3317 31.0518 50.3317 31.0281C50.3317 26.4326 47.2929 22.6405 43.163 20.1167C38.9942 17.5691 33.3797 16.0674 27.2986 16.0674C21.2175 16.0674 15.6029 17.5691 11.4341 20.1167C7.31379 22.6348 4.27948 26.4152 4.26561 30.9965Z" fill="#633001"/>
<path d="M48.0566 34.2557C48.0566 41.2619 38.7629 46.9415 27.2985 46.9415C15.8341 46.9415 6.54028 41.2619 6.54028 34.2557V31.2793H48.0566V34.2557Z" fill="#FEDC90"/>
<path d="M48.0566 31.0277C48.0566 38.0338 38.7629 43.7134 27.2985 43.7134C15.8341 43.7134 6.54028 38.0338 6.54028 31.0277C6.54028 24.0214 15.8341 18.3418 27.2985 18.3418C38.7629 18.3418 48.0566 24.0214 48.0566 31.0277Z" fill="#D1884F"/>
<path fill-rule="evenodd" clip-rule="evenodd" d="M12.7964 24.1713C12.7964 24.1818 12.7964 24.1923 12.7964 24.2029C12.7964 24.9684 12.9074 25.718 13.1199 26.4462H12.7962V27.4321C12.7962 27.8672 12.832 28.2972 12.902 28.7211C13.959 35.1218 22.802 40.1178 33.5543 40.1178C44.3067 40.1178 53.1496 35.1218 54.2067 28.7211C54.2766 28.2972 54.3125 27.8672 54.3125 27.4321V26.4462H53.9892C54.196 25.7379 54.3066 25.0092 54.3125 24.2655C54.3126 24.2446 54.3127 24.2238 54.3127 24.2029C54.3127 24.1923 54.3127 24.1818 54.3127 24.1713C54.2848 17.1796 45.0018 11.5171 33.5546 11.5171C22.1074 11.5171 12.8244 17.1796 12.7964 24.1713ZM10.5216 24.1713H10.5212V27.4321C10.5212 32.0275 13.56 35.8196 17.6899 38.3434C21.8587 40.8911 27.4732 42.3928 33.5543 42.3928C39.6354 42.3928 45.25 40.8911 49.4188 38.3434C53.5486 35.8196 56.5874 32.0275 56.5874 27.4321V24.2739C56.5875 24.2503 56.5876 24.2265 56.5876 24.2029C56.5876 19.6073 53.5489 15.8153 49.419 13.2915C45.2502 10.7438 39.6356 9.24219 33.5546 9.24219C27.4735 9.24219 21.8589 10.7438 17.69 13.2915C13.5698 15.8096 10.5355 19.59 10.5216 24.1713Z" fill="#633001"/>
<path d="M54.3124 27.4325C54.3124 34.4386 45.0186 40.1183 33.5542 40.1183C22.0898 40.1183 12.796 34.4386 12.796 27.4325V24.4561H54.3124V27.4325Z" fill="#FEDC90"/>
<path d="M54.3124 24.2024C54.3124 31.2086 45.0186 36.8882 33.5542 36.8882C22.0898 36.8882 12.796 31.2086 12.796 24.2024C12.796 17.1962 22.0898 11.5166 33.5542 11.5166C45.0186 11.5166 54.3124 17.1962 54.3124 24.2024Z" fill="#D1884F"/>
<path fill-rule="evenodd" clip-rule="evenodd" d="M6.54046 17.3461C6.54046 17.3566 6.54046 17.3672 6.54046 17.3777C6.54046 18.1432 6.65139 18.8929 6.86402 19.621H6.54019V20.6069C6.54019 21.0421 6.57601 21.4721 6.64606 21.8959C7.70304 28.2966 16.546 33.2927 27.2983 33.2927C38.0507 33.2927 46.8936 28.2966 47.9507 21.8959C48.0206 21.4721 48.0565 21.0421 48.0565 20.6069V19.621H47.7332C47.94 18.9127 48.0507 18.1841 48.0565 17.4403C48.0567 17.4195 48.0567 17.3986 48.0567 17.3777C48.0567 17.3672 48.0567 17.3566 48.0567 17.3461C48.0288 10.3545 38.7458 4.69192 27.2986 4.69192C15.8514 4.69192 6.56837 10.3545 6.54046 17.3461ZM4.26561 17.3461H4.26526V20.6069C4.26526 25.2024 7.3041 28.9944 11.4339 31.5182C15.6027 34.066 21.2173 35.5676 27.2983 35.5676C33.3794 35.5676 38.994 34.066 43.1629 31.5182C47.2926 28.9944 50.3314 25.2024 50.3314 20.6069V17.4487C50.3316 17.4251 50.3317 17.4014 50.3317 17.3777C50.3317 12.7822 47.2929 8.99015 43.163 6.46633C38.9942 3.91868 33.3797 2.41699 27.2986 2.41699C21.2175 2.41699 15.6029 3.91868 11.4341 6.46633C7.31379 8.98437 4.27948 12.7648 4.26561 17.3461Z" fill="#633001"/>
<path d="M48.0566 20.6073C48.0566 27.6134 38.7629 33.2931 27.2985 33.2931C15.8341 33.2931 6.54028 27.6134 6.54028 20.6073V17.6309H48.0566V20.6073Z" fill="#FEDC90"/>
<path d="M48.0566 17.3782C48.0566 24.3844 38.7629 30.064 27.2985 30.064C15.8341 30.064 6.54028 24.3844 6.54028 17.3782C6.54028 10.372 15.8341 4.69238 27.2985 4.69238C38.7629 4.69238 48.0566 10.372 48.0566 17.3782Z" fill="#D1884F"/>
<path fill-rule="evenodd" clip-rule="evenodd" d="M11.4507 18.1675C11.4507 20.5066 13.1503 22.6015 15.8318 24.011L13.974 27.229L13.9743 27.2292H13.974V35.3731C13.974 36.45 14.8469 37.323 15.9238 37.323C17.0007 37.323 17.8737 36.45 17.8737 35.3731V28.8963L19.8725 25.4343C21.1505 25.7054 22.5224 25.8526 23.9502 25.8526C30.8535 25.8526 36.4498 22.4118 36.4498 18.1675C36.4498 13.9231 30.8535 10.4824 23.9502 10.4824C17.047 10.4824 11.4507 13.9231 11.4507 18.1675Z" fill="url(#paint0_linear)"/>
<path fill-rule="evenodd" clip-rule="evenodd" d="M15.8314 24.0114C15.5344 23.8553 15.2494 23.6908 14.9774 23.5184C12.7943 22.1348 11.4503 20.2478 11.4503 18.1678C11.4503 13.9235 17.0466 10.4828 23.9499 10.4828C30.8532 10.4828 36.4494 13.9235 36.4494 18.1678C36.4494 22.4122 30.8532 25.8529 23.9499 25.8529C22.5221 25.8529 21.1501 25.7057 19.8722 25.4347L17.8734 28.8966V35.3734C17.8734 36.4503 17.0004 37.3233 15.9235 37.3233C14.8466 37.3233 13.9736 36.4503 13.9736 35.3734V27.2295L15.8314 24.0114ZM11.9831 27.2637V35.3734C11.9831 37.5497 13.7473 39.3139 15.9235 39.3139C18.0998 39.3139 19.8639 37.5497 19.8639 35.3734V29.4301L20.9006 27.6344C21.8853 27.7717 22.9057 27.8435 23.9499 27.8435C27.7089 27.8435 31.2074 26.9107 33.831 25.2977C36.422 23.7046 38.4399 21.2399 38.4399 18.1678C38.4399 15.0957 36.422 12.631 33.831 11.038C31.2074 9.42499 27.7089 8.49219 23.9499 8.49219C20.1909 8.49219 16.6924 9.42499 14.0689 11.038C11.4778 12.631 9.45984 15.0957 9.45984 18.1678C9.45984 20.8641 11.0041 23.0844 13.1498 24.6752L12.2635 26.2102C12.179 26.3517 12.1116 26.5045 12.064 26.6658C12.0058 26.8625 11.9795 27.0642 11.9831 27.2637Z" fill="#633001"/>
<path d="M15.3553 14.9284C15.3553 17.1271 18.1561 18.9095 21.6113 18.9095C25.0663 18.9095 27.8672 17.1271 27.8672 14.9284C27.8672 12.7297 25.0663 10.9473 21.6113 10.9473C18.1561 10.9473 15.3553 12.7297 15.3553 14.9284Z" fill="#9E7200"/>
<path d="M15.3556 13.2227H27.8674V14.9289H15.3556V13.2227Z" fill="#9E7200"/>
<path d="M15.3553 13.2233C15.3553 15.422 18.1561 17.2044 21.6113 17.2044C25.0663 17.2044 27.8672 15.422 27.8672 13.2233C27.8672 11.0246 25.0663 9.24219 21.6113 9.24219C18.1561 9.24219 15.3553 11.0246 15.3553 13.2233Z" fill="#F0B90B"/>
<path d="M19.2374 12.7434L21.0007 11.6212C21.3733 11.3841 21.8495 11.3841 22.222 11.6212L23.9854 12.7434C24.3365 12.9668 24.3365 13.4795 23.9854 13.703L22.222 14.8251C21.8495 15.0622 21.3733 15.0622 21.0007 14.8251L19.2374 13.703C18.8862 13.4795 18.8862 12.9668 19.2374 12.7434Z" fill="#9E7200"/>
<path fill-rule="evenodd" clip-rule="evenodd" d="M16.1192 8.7292C17.6166 7.77622 19.5638 7.25195 21.6115 7.25195C23.6591 7.25195 25.6062 7.77622 27.1037 8.7292C28.5776 9.66707 29.8579 11.2076 29.8579 13.2236V14.9298C29.8579 16.9458 28.5776 18.4864 27.1037 19.4242C25.6062 20.3772 23.6591 20.9015 21.6115 20.9015C19.5638 20.9015 17.6166 20.3772 16.1192 19.4242C14.6453 18.4864 13.365 16.9458 13.365 14.9298V13.2236C13.365 11.2076 14.6453 9.66707 16.1192 8.7292ZM21.6115 9.24253C18.1565 9.24253 15.3556 11.0249 15.3556 13.2236V14.9298C15.3556 17.1285 18.1565 18.911 21.6115 18.911C25.0665 18.911 27.8674 17.1285 27.8674 14.9298V13.2236C27.8674 11.0249 25.0665 9.24253 21.6115 9.24253Z" fill="#633001"/>
<defs>
<linearGradient id="paint0_linear" x1="24.0854" y1="10.7397" x2="24.0854" y2="37.121" gradientUnits="userSpaceOnUse">
<stop stop-color="#9F4A08"/>
<stop offset="0.37" stop-color="#7D3900"/>
<stop offset="1" stop-color="#8D4104"/>
</linearGradient>
</defs>
</svg>
